PathFileType	4	(X/Y/Z)	C:/Users/beibeiliu/ov580/test_trc/User2\sequence.34_training_dense_left.trc
DataRate	CameraRate	NumFrames	NumMarkers	Units	OrigDataRate	OrigDataStartFrame	OrigNumFrames
120	120	7	19	mm	120	97	144
Frame#	Time	ThumbCMC			ThumbMCP			ThumbIP			ThumbTip			IndexMCP			IndexPIP			IndexTip			MiddleMCP			MiddlePIP			MiddleTip			RingMCP			RingPIP			RingTip			PinkyMCP			PinkyPIP			PinkyTip			BackHand1			BackHand2			BackHand3	
		X0	Y0	Z0	X1	Y1	Z1	X2	Y2	Z2	X3	Y3	Z3	X4	Y4	Z4	X5	Y5	Z5	X6	Y6	Z6	X7	Y7	Z7	X8	Y8	Z8	X9	Y9	Z9	X10	Y10	Z10	X11	Y11	Z11	X12	Y12	Z12	X13	Y13	Z13	X14	Y14	Z14	X15	Y15	Z15	X16	Y16	Z16	X17	Y17	Z17	X18	Y18	Z18	
96	0.8	-166.337	24.188	-37.548	-155.463	40.6776	-64.2154	-143.624	48.9605	-100.653	-132.987	40.55	-121.745	-158.467	16.8653	-120.041	-125.345	21.223	-122.199	-127.517	19.4972	-83.7984	-149.679	-6.58521	-121.913	-113.807	-1.51414	-115.408	-122.511	0.0272385	-77.1158	-139.607	-22.8646	-120.988	-110.739	-15.6235	-110.68	-122.671	-14.6296	-77.0368	-136.291	-42.4614	-110.098	-108.503	-29.1054	-99.5649	-118.414	-27.2745	-69.808	-180.965	-37.9752	-71.214	-189.305	-41.7529	-38.9282	-190.901	-0.986941	-49.0711	
97	0.808333	-164.281	24.0126	-35.8859	-150.738	43.0899	-61.3822	-137.775	47.4699	-92.8779	-126.243	41.9229	-121.308	-159.628	19.8953	-117.684	-123.041	23.2476	-119.983	-125.241	22.7137	-82.7041	-147.761	-6.33699	-121.872	-112.144	2.42224	-114.489	-120.401	4.40391	-76.2056	-138.237	-21.9621	-120.06	-108.796	-17.2275	-110.559	-120.288	-14.1574	-75.5908	-135.49	-41.652	-109.243	-106.783	-26.1477	-100.172	-116.391	-24.1663	-68.2077	-181.131	-34.0381	-70.5417	-185.701	-41.4888	-34.14	-189.443	-3.39208	-52.3601	
98	0.816667	-163.572	27.8337	-34.251	-144.376	46.2251	-58.9647	-129.901	49.6835	-94.3876	-118.406	40.3053	-115.225	-157.655	18.886	-116.498	-123.469	24.0094	-119.435	-121.711	23.0934	-84.4557	-146.692	-2.87403	-121.563	-113.372	4.94554	-117.82	-119.541	4.87484	-74.4871	-136.218	-21.7836	-118.95	-108.277	-16.3403	-111.007	-117.986	-11.1975	-76.4137	-134.459	-39.9588	-107.796	-106.586	-25.1197	-100.564	-114.827	-22.9718	-67.2573	-178.28	-34.8172	-70.4785	-184.584	-41.9641	-34.1394	-188.713	-1.03752	-46.8	
99	0.825	-159.108	23.7919	-36.9306	-135.996	39.9491	-60.0402	-117.221	46.249	-88.058	-103.549	37.4903	-110.453	-155.012	19.7028	-117.204	-124.857	24.5345	-122.313	-119.952	23.8739	-84.0343	-145.656	-2.04132	-119.756	-110.074	7.03121	-112.765	-118.227	7.07714	-72.2671	-132.807	-20.7431	-118.631	-107.167	-10.6997	-109.02	-118.484	-7.79253	-74.5731	-135.197	-38.266	-105.479	-104.829	-25.3844	-101.915	-111.956	-21.1795	-71.0128	-177.695	-37.069	-68.5335	-183.895	-40.3252	-36.4575	-189.829	-4.74405	-46.488	
100	0.833333	-155.916	21.4533	-31.0757	-127.247	36.1884	-58.0411	-106.653	37.9058	-84.2868	-91.1386	31.8253	-106.714	-156.808	20.6272	-114.517	-126.398	24.4416	-122.421	-118.271	23.3294	-83.6345	-141.423	-0.556193	-121.778	-109.552	7.02739	-113.397	-118.23	9.23536	-72.2991	-135.259	-19.3418	-116.623	-106.958	-9.05846	-109.328	-118.234	-8.86823	-71.9524	-130.319	-41.0793	-106.593	-103.728	-23.1807	-101.32	-110.009	-19.6059	-69.0398	-175.648	-37.1511	-68.9489	-183.049	-40.2815	-32.3556	-187.165	-2.53634	-46.9266	
101	0.841667	-153.845	22.1691	-37.0255	-123.266	27.179	-55.4171	-100.194	28.5517	-82.1315	-83.0492	24.5235	-102.254	-156.637	20.1025	-115.418	-126.964	25.583	-122.806	-117.374	22.2777	-83.3974	-144.62	-1.6903	-118.848	-108.738	5.42853	-110.346	-117.629	4.18364	-73.3822	-133.771	-19.1789	-117.443	-104.34	-11.0455	-105.234	-117.667	-9.48549	-72.6131	-129.443	-40.9665	-106.033	-103.841	-23.1763	-100.6	-111.054	-21.3995	-66.2752	-175.965	-37.6094	-68.0915	-180.876	-42.8905	-37.1033	-189.102	-3.10881	-50.9264	
102	0.85	-152.78	22.8586	-37.1496	-119.153	28.5632	-57.5217	-94.5924	28.5912	-79.1165	-75.9232	24.079	-98.5433	-155.438	21.1674	-118.564	-124.646	25.4726	-122.279	-115.997	21.8321	-87.9887	-142.33	-3.73919	-121.608	-109.826	8.56409	-113.498	-117.568	5.33793	-73.8235	-132.808	-23.0813	-116.619	-105.744	-10.129	-106.365	-118.127	-11.5451	-72.4835	-130.905	-39.9067	-104.013	-103.68	-22.3495	-97.7472	-112.359	-23.5815	-65.6981	-174.414	-38.8081	-68.9846	-182.257	-39.5387	-36.8724	-188.008	-6.23203	-51.3264	
